<?xml version="1.0" encoding="utf-8"?>
<!-- Generator: Adobe Illustrator 16.0.1, SVG Export Plug-In . SVG Version: 6.00 Build 0)  -->
<!DOCTYPE svg PUBLIC "-//W3C//DTD SVG 1.1//EN" "http://www.w3.org/Graphics/SVG/1.1/DTD/svg11.dtd">
<svg version="1.1" id="Layer_1" xmlns:sketch="http://www.bohemiancoding.com/sketch/ns"
	 xmlns="http://www.w3.org/2000/svg" xmlns:xlink="http://www.w3.org/1999/xlink" x="0px" y="0px" width="15.342px"
	 height="16.769px" viewBox="2.763 0.231 15.342 16.769" enable-background="new 2.763 0.231 15.342 16.769" xml:space="preserve">
<title>rock-paper-scissors</title>
<description>Created with Sketch (http://www.bohemiancoding.com/sketch)</description>
<g id="Page-1" sketch:type="MSPage">
	<g id="rock" transform="translate(3.000000, 1.000000)" sketch:type="MSLayerGroup">
		<path id="Shape" sketch:type="MSShapeGroup" fill="#FFFFFF" stroke="#000000" d="M8.219,15.5c-0.745,0-1.35-0.216-1.35-1.5l0,0
			c0-1.284,0.604-1.5,1.35-1.5h2.699c0.745,0,1.35,0.216,1.35,1.5l0,0c0,1.284-0.604,1.5-1.35,1.5H8.219L8.219,15.5z"/>
		<path id="Shape_1_" sketch:type="MSShapeGroup" fill="#FFFFFF" stroke="#000000" d="M9.25,12.5c-0.74,0-1.339-0.808-1.339-1.5l0,0
			c0-0.692,0.6-1.5,1.339-1.5h4.018c0.739,0,1.338,0.808,1.338,1.5l0,0c0,0.692-0.6,1.5-1.338,1.5H9.25L9.25,12.5z"/>
		<path id="Shape_2_" sketch:type="MSShapeGroup" fill="#FFFFFF" stroke="#000000" d="M9.779,9.5C8.748,9.5,7.5,9.477,7.5,8.51
			V8.248c0-0.966,1.248-1.749,2.279-1.749h2.959c1.031,0,1.763,0.782,1.763,1.749V8.51c0,0.967-0.729,0.99-1.763,0.99H9.779
			L9.779,9.5z"/>
		<path id="Shape_3_" sketch:type="MSShapeGroup" fill="#FFFFFF" stroke="#000000" d="M9.812,6.5C8.762,6.5,7.5,5.701,7.5,4.718
			V4.517C7.5,3.534,8.762,2.5,9.812,2.5h2.893c1.05,0,1.795,1.034,1.795,2.017v0.201c0,0.983-0.745,1.782-1.795,1.782H9.812
			L9.812,6.5z"/>
		<path id="Shape_4_" sketch:type="MSShapeGroup" fill="#FFFFFF" stroke="#000000" d="M7.277,11.571c0-1.075-0.466-2.029-1.19-2.69
			c0.723-0.663,1.19-1.631,1.19-2.725c0-0.491-0.463-1.602,0.128-1.706C7.996,4.346,7.84,5.935,7.981,6.195
			c0.141,0.26,1.031,0.672,1.5,0.583c0.609-0.089,2.345-2.87,2.25-3.417C11.637,2.814,8.473,0.16,8.473,0.16
			C7.591-0.684,5.798-0.242,4.47,1.147c-0.431,0.45-0.749,0.944-0.967,1.436c-1.7,0.2-3.027,1.713-3.027,3.573
			c0,1.042,0.421,1.974,1.085,2.634c-0.786,0.662-1.298,1.655-1.298,2.782c0,1.993,1.57,3.609,3.507,3.609
			S7.277,13.564,7.277,11.571L7.277,11.571z"/>
	</g>
</g>
</svg>
