<?xml version="1.0" encoding="utf-8"?>
<!-- Generator: Adobe Illustrator 16.0.1, SVG Export Plug-In . SVG Version: 6.00 Build 0)  -->
<!DOCTYPE svg PUBLIC "-//W3C//DTD SVG 1.1//EN" "http://www.w3.org/Graphics/SVG/1.1/DTD/svg11.dtd">
<svg version="1.1" id="Layer_1" xmlns:sketch="http://www.bohemiancoding.com/sketch/ns"
	 xmlns="http://www.w3.org/2000/svg" xmlns:xlink="http://www.w3.org/1999/xlink" x="0px" y="0px" width="20.364px"
	 height="16.747px" viewBox="0.785 80.253 20.364 16.747" enable-background="new 0.785 80.253 20.364 16.747" xml:space="preserve"
	>
<title>rock-paper-scissors</title>
<description>Created with Sketch (http://www.bohemiancoding.com/sketch)</description>
<g id="Page-1" sketch:type="MSPage">
	<g id="scissors" transform="translate(1.000000, 81.000000)" sketch:type="MSLayerGroup">
		<path id="Shape" sketch:type="MSShapeGroup" fill="#FFFFFF" stroke="#000000" d="M11.5,9.258V8.836l6.045,1.592
			c0.879,0.236,1.832-0.322,2.053-1.244c0.221-0.926-0.289-2.072-1.168-2.309l-3.41-1.127l3.039-0.141
			c0.905-0.043,1.616-0.621,1.572-1.574s-0.8-1.465-1.704-1.424l-6.551,0.305c-0.431,0.02-0.81,0.211-1.089,0.506
			C9.712,3.006,8.888,2.758,8.126,2.758c-1.934,0-3.626,1.566-3.626,3.5v3c0,1.932,1.566,3.5,3.5,3.5S11.5,11.189,11.5,9.258
			L11.5,9.258z"/>
		<path id="Shape_1_" sketch:type="MSShapeGroup" fill="#FFFFFF" stroke="#000000" d="M9.271,12.5c-0.739,0-1.339-0.809-1.339-1.5
			l0,0c0-0.691,0.6-1.5,1.339-1.5h4.017c0.739,0,1.34,0.809,1.34,1.5l0,0c0,0.691-0.601,1.5-1.34,1.5H9.271L9.271,12.5z"/>
		<path id="Shape_2_" sketch:type="MSShapeGroup" fill="#FFFFFF" stroke="#000000" d="M8.24,15.5c-0.745,0-1.35-0.216-1.35-1.5l0,0
			c0-1.284,0.604-1.5,1.35-1.5h2.699c0.744,0,1.349,0.216,1.349,1.5l0,0c0,1.284-0.604,1.5-1.349,1.5H8.24L8.24,15.5z"/>
		<path id="Shape_3_" sketch:type="MSShapeGroup" fill="#FFFFFF" stroke="#000000" d="M7.299,11.592c0-1.074-0.466-2.029-1.19-2.689
			c0.723-0.664,1.19-1.631,1.19-2.727c0-0.49-0.463-1.602,0.128-1.705c0.592-0.104,0.436,1.484,0.576,1.746
			c0.141,0.26,1.031,0.672,1.5,0.582c0.609-0.088,2.345-2.869,2.25-3.416c-0.094-0.547-3.258-3.201-3.258-3.201
			C7.612-0.662,5.819-0.221,4.491,1.168C4.06,1.617,3.743,2.111,3.524,2.604C1.825,2.805,0.497,4.316,0.497,6.176
			c0,1.043,0.422,1.975,1.086,2.635c-0.785,0.662-1.298,1.654-1.298,2.781c0,1.994,1.569,3.609,3.507,3.609
			S7.299,13.586,7.299,11.592L7.299,11.592z"/>
	</g>
</g>
</svg>
